<svg width="240" height="40" viewBox="0 0 240 40" fill="none" xmlns="http://www.w3.org/2000/svg">
<rect width="240" height="40" rx="12" fill="#BEBEBE"/>
<path opacity="0.3" d="M43.136 25.16C42.144 25.16 41.312 25.016 40.64 24.728C39.9787 24.4293 39.472 24.0453 39.12 23.576C38.7787 23.096 38.5973 22.5947 38.576 22.072C38.576 21.976 38.608 21.896 38.672 21.832C38.736 21.768 38.816 21.736 38.912 21.736H40.336C40.4747 21.736 40.576 21.768 40.64 21.832C40.7147 21.8853 40.7787 21.9547 40.832 22.04C40.896 22.2427 41.0187 22.4453 41.2 22.648C41.3813 22.84 41.6267 23 41.936 23.128C42.256 23.256 42.656 23.32 43.136 23.32C43.904 23.32 44.4747 23.192 44.848 22.936C45.232 22.68 45.424 22.3333 45.424 21.896C45.424 21.5867 45.3227 21.3413 45.12 21.16C44.9173 20.968 44.6027 20.7973 44.176 20.648C43.76 20.488 43.2053 20.3227 42.512 20.152C41.712 19.96 41.04 19.7307 40.496 19.464C39.9627 19.1867 39.5573 18.84 39.28 18.424C39.0133 18.008 38.88 17.48 38.88 16.84C38.88 16.2213 39.0453 15.672 39.376 15.192C39.7173 14.712 40.1973 14.3333 40.816 14.056C41.4453 13.7787 42.192 13.64 43.056 13.64C43.7493 13.64 44.3627 13.736 44.896 13.928C45.4293 14.1093 45.872 14.3547 46.224 14.664C46.576 14.9627 46.8427 15.288 47.024 15.64C47.216 15.9813 47.3173 16.3173 47.328 16.648C47.328 16.7333 47.296 16.8133 47.232 16.888C47.1787 16.952 47.0987 16.984 46.992 16.984H45.504C45.4187 16.984 45.3333 16.9627 45.248 16.92C45.1627 16.8773 45.0933 16.7973 45.04 16.68C44.976 16.3493 44.768 16.0667 44.416 15.832C44.064 15.5973 43.6107 15.48 43.056 15.48C42.48 15.48 42.016 15.5867 41.664 15.8C41.312 16.0133 41.136 16.344 41.136 16.792C41.136 17.0907 41.2213 17.3413 41.392 17.544C41.5733 17.736 41.856 17.9067 42.24 18.056C42.6347 18.2053 43.152 18.3653 43.792 18.536C44.6987 18.7387 45.44 18.9733 46.016 19.24C46.592 19.5067 47.0133 19.848 47.28 20.264C47.5467 20.6693 47.68 21.1867 47.68 21.816C47.68 22.52 47.488 23.1227 47.104 23.624C46.7307 24.1147 46.2027 24.4933 45.52 24.76C44.8373 25.0267 44.0427 25.16 43.136 25.16ZM52.9056 25.16C51.7216 25.16 50.783 24.8187 50.0896 24.136C49.3963 23.4533 49.023 22.4827 48.9696 21.224C48.959 21.1173 48.9536 20.984 48.9536 20.824C48.9536 20.6533 48.959 20.52 48.9696 20.424C49.0123 19.624 49.1936 18.9307 49.5136 18.344C49.8443 17.7573 50.2976 17.3093 50.8736 17C51.4496 16.68 52.127 16.52 52.9056 16.52C53.7696 16.52 54.495 16.7013 55.0816 17.064C55.6683 17.416 56.111 17.912 56.4096 18.552C56.7083 19.1813 56.8576 19.912 56.8576 20.744V21.08C56.8576 21.1867 56.8203 21.2773 56.7456 21.352C56.671 21.4267 56.575 21.464 56.4576 21.464H51.1456C51.1456 21.464 51.1456 21.48 51.1456 21.512C51.1456 21.544 51.1456 21.5707 51.1456 21.592C51.1563 21.9653 51.2256 22.312 51.3536 22.632C51.4923 22.9413 51.6896 23.192 51.9456 23.384C52.2123 23.576 52.527 23.672 52.8896 23.672C53.1883 23.672 53.439 23.6293 53.6416 23.544C53.8443 23.448 54.0096 23.3413 54.1376 23.224C54.2656 23.1067 54.3563 23.0107 54.4096 22.936C54.5056 22.808 54.5803 22.7333 54.6336 22.712C54.6976 22.68 54.7883 22.664 54.9056 22.664H56.2816C56.3883 22.664 56.4736 22.696 56.5376 22.76C56.6123 22.824 56.6443 22.904 56.6336 23C56.623 23.1707 56.5323 23.3787 56.3616 23.624C56.2016 23.8693 55.967 24.1093 55.6576 24.344C55.3483 24.5787 54.959 24.776 54.4896 24.936C54.031 25.0853 53.503 25.16 52.9056 25.16ZM51.1456 20.12H54.6816V20.072C54.6816 19.656 54.6123 19.2933 54.4736 18.984C54.335 18.6747 54.1323 18.4293 53.8656 18.248C53.599 18.0667 53.279 17.976 52.9056 17.976C52.5323 17.976 52.2123 18.0667 51.9456 18.248C51.679 18.4293 51.4763 18.6747 51.3376 18.984C51.2096 19.2933 51.1456 19.656 51.1456 20.072V20.12ZM60.972 25.16C60.4173 25.16 59.916 25.0533 59.468 24.84C59.02 24.616 58.6627 24.3227 58.396 23.96C58.14 23.5867 58.012 23.1707 58.012 22.712C58.012 21.9653 58.3107 21.3733 58.908 20.936C59.516 20.488 60.316 20.1893 61.308 20.04L63.5 19.72V19.384C63.5 18.936 63.388 18.5893 63.164 18.344C62.94 18.0987 62.556 17.976 62.012 17.976C61.628 17.976 61.3133 18.056 61.068 18.216C60.8333 18.3653 60.6573 18.568 60.54 18.824C60.4547 18.9627 60.332 19.032 60.172 19.032H58.908C58.7907 19.032 58.7 19 58.636 18.936C58.5827 18.872 58.556 18.7867 58.556 18.68C58.5667 18.5093 58.636 18.3013 58.764 18.056C58.892 17.8107 59.0947 17.576 59.372 17.352C59.6493 17.1173 60.0067 16.92 60.444 16.76C60.8813 16.6 61.4093 16.52 62.028 16.52C62.7 16.52 63.2653 16.6053 63.724 16.776C64.1933 16.936 64.5667 17.1547 64.844 17.432C65.1213 17.7093 65.324 18.0347 65.452 18.408C65.58 18.7813 65.644 19.176 65.644 19.592V24.616C65.644 24.7227 65.6067 24.8133 65.532 24.888C65.4573 24.9627 65.3667 25 65.26 25H63.964C63.8467 25 63.7507 24.9627 63.676 24.888C63.612 24.8133 63.58 24.7227 63.58 24.616V23.992C63.4413 24.1947 63.2547 24.3867 63.02 24.568C62.7853 24.7387 62.4973 24.8827 62.156 25C61.8253 25.1067 61.4307 25.16 60.972 25.16ZM61.516 23.64C61.8893 23.64 62.2253 23.56 62.524 23.4C62.8333 23.24 63.0733 22.9947 63.244 22.664C63.4253 22.3227 63.516 21.896 63.516 21.384V21.048L61.916 21.304C61.2867 21.4 60.8173 21.5547 60.508 21.768C60.1987 21.9813 60.044 22.2427 60.044 22.552C60.044 22.7867 60.1133 22.9893 60.252 23.16C60.4013 23.32 60.588 23.4427 60.812 23.528C61.036 23.6027 61.2707 23.64 61.516 23.64ZM68.0806 25C67.974 25 67.8833 24.9627 67.8086 24.888C67.734 24.8133 67.6966 24.7227 67.6966 24.616V17.08C67.6966 16.9627 67.734 16.8667 67.8086 16.792C67.8833 16.7173 67.974 16.68 68.0806 16.68H69.3766C69.4833 16.68 69.574 16.7173 69.6486 16.792C69.734 16.8667 69.7766 16.9627 69.7766 17.08V17.736C70.022 17.3947 70.3366 17.1333 70.7206 16.952C71.1153 16.7707 71.5686 16.68 72.0806 16.68H72.7366C72.854 16.68 72.9446 16.7173 73.0086 16.792C73.0833 16.8667 73.1206 16.9573 73.1206 17.064V18.216C73.1206 18.3227 73.0833 18.4133 73.0086 18.488C72.9446 18.5627 72.854 18.6 72.7366 18.6H71.4886C70.9766 18.6 70.5766 18.744 70.2886 19.032C70.0113 19.32 69.8726 19.7147 69.8726 20.216V24.616C69.8726 24.7227 69.8353 24.8133 69.7606 24.888C69.686 24.9627 69.59 25 69.4726 25H68.0806ZM77.8591 25.16C77.0911 25.16 76.4138 25.016 75.8271 24.728C75.2511 24.44 74.7978 24.024 74.4671 23.48C74.1471 22.9253 73.9711 22.2587 73.9391 21.48C73.9285 21.32 73.9231 21.112 73.9231 20.856C73.9231 20.5893 73.9285 20.3707 73.9391 20.2C73.9711 19.4213 74.1471 18.76 74.4671 18.216C74.7978 17.6613 75.2511 17.24 75.8271 16.952C76.4138 16.664 77.0911 16.52 77.8591 16.52C78.5418 16.52 79.1231 16.616 79.6031 16.808C80.0831 17 80.4778 17.24 80.7871 17.528C81.0965 17.816 81.3258 18.12 81.4751 18.44C81.6351 18.7493 81.7205 19.032 81.7311 19.288C81.7418 19.4053 81.7045 19.5013 81.6191 19.576C81.5445 19.64 81.4538 19.672 81.3471 19.672H79.9391C79.8325 19.672 79.7471 19.6453 79.6831 19.592C79.6298 19.5387 79.5765 19.4587 79.5231 19.352C79.3631 18.9253 79.1498 18.6267 78.8831 18.456C78.6271 18.2747 78.2965 18.184 77.8911 18.184C77.3578 18.184 76.9311 18.3547 76.6111 18.696C76.3018 19.0267 76.1365 19.5547 76.1151 20.28C76.0938 20.6853 76.0938 21.0587 76.1151 21.4C76.1365 22.136 76.3018 22.6693 76.6111 23C76.9311 23.3307 77.3578 23.496 77.8911 23.496C78.3071 23.496 78.6431 23.4107 78.8991 23.24C79.1551 23.0587 79.3631 22.7547 79.5231 22.328C79.5765 22.2213 79.6298 22.1413 79.6831 22.088C79.7471 22.0347 79.8325 22.008 79.9391 22.008H81.3471C81.4538 22.008 81.5445 22.0453 81.6191 22.12C81.7045 22.184 81.7418 22.2747 81.7311 22.392C81.7205 22.584 81.6671 22.8027 81.5711 23.048C81.4858 23.2827 81.3418 23.528 81.1391 23.784C80.9471 24.0293 80.7018 24.2587 80.4031 24.472C80.1045 24.6747 79.7418 24.84 79.3151 24.968C78.8991 25.096 78.4138 25.16 77.8591 25.16ZM83.7998 25C83.6931 25 83.6024 24.9627 83.5278 24.888C83.4531 24.8133 83.4158 24.7227 83.4158 24.616V14.024C83.4158 13.9173 83.4531 13.8267 83.5278 13.752C83.6024 13.6773 83.6931 13.64 83.7998 13.64H85.2238C85.3411 13.64 85.4318 13.6773 85.4958 13.752C85.5704 13.8267 85.6078 13.9173 85.6078 14.024V17.672C85.8958 17.3307 86.2478 17.0533 86.6638 16.84C87.0798 16.6267 87.5918 16.52 88.1998 16.52C88.8504 16.52 89.4158 16.6693 89.8958 16.968C90.3864 17.256 90.7651 17.6667 91.0318 18.2C91.2984 18.7333 91.4318 19.3733 91.4318 20.12V24.616C91.4318 24.7227 91.3944 24.8133 91.3198 24.888C91.2451 24.9627 91.1544 25 91.0478 25H89.6078C89.5011 25 89.4104 24.9627 89.3358 24.888C89.2611 24.8133 89.2238 24.7227 89.2238 24.616V20.216C89.2238 19.5973 89.0691 19.112 88.7598 18.76C88.4611 18.408 88.0238 18.232 87.4478 18.232C86.8931 18.232 86.4451 18.408 86.1038 18.76C85.7731 19.112 85.6078 19.5973 85.6078 20.216V24.616C85.6078 24.7227 85.5704 24.8133 85.4958 24.888C85.4318 24.9627 85.3411 25 85.2238 25H83.7998Z" fill="black"/>
<g clip-path="url(#clip0_156_20530)">
<path d="M18 27C22.4183 27 26 23.4183 26 19C26 14.5817 22.4183 11 18 11C13.5817 11 10 14.5817 10 19C10 23.4183 13.5817 27 18 27Z" fill="#80C2FF"/>
<rect x="20.9629" y="24.791" width="4" height="12" rx="2" transform="rotate(-45 20.9629 24.791)" fill="#0000FF"/>
</g>
<defs>
<clipPath id="clip0_156_20530">
<rect width="24" height="24" fill="white" transform="translate(8 9)"/>
</clipPath>
</defs>
</svg>
